<svg width="56" height="40" viewBox="0 0 140 100" xmlns="http://www.w3.org/2000/svg">
  <!-- Tail -->
  <path d="M108 44 C125 30 132 36 128 48 C132 60 125 66 108 54 Z" fill="#7c3aed"/>
  <!-- Body -->
  <ellipse cx="60" cy="50" rx="50" ry="18" fill="#7c3aed"/>
  <!-- Head upper jaw -->
  <path d="M12 38 C2 38 0 44 0 50 L12 52 Z" fill="#7c3aed"/>
  <!-- Head lower jaw -->
  <path d="M12 52 C2 52 0 58 6 63 L22 57 Z" fill="#6d28d9"/>
  <!-- Teeth upper -->
  <polygon points="4,51 7,57 10,51" fill="white"/>
  <polygon points="10,51 13,57 16,51" fill="white"/>
  <!-- Teeth lower (small) -->
  <polygon points="6,57 8,52 10,57" fill="#d8b4fe"/>
  <!-- Eye -->
  <circle cx="18" cy="36" r="5" fill="#ede9fe"/>
  <circle cx="18" cy="36" r="2.8" fill="#4c1d95"/>
  <circle cx="19.2" cy="34.8" r="1" fill="white"/>
  <!-- Nostril -->
  <ellipse cx="2" cy="47" rx="1.5" ry="1" fill="#6d28d9"/>
  <!-- Scales on back -->
  <path d="M38 33 L43 33 L40.5 39 Z" fill="#6d28d9" opacity="0.7"/>
  <path d="M53 31 L58 31 L55.5 37 Z" fill="#6d28d9" opacity="0.7"/>
  <path d="M68 31 L73 31 L70.5 37 Z" fill="#6d28d9" opacity="0.7"/>
  <path d="M83 33 L88 33 L85.5 39 Z" fill="#6d28d9" opacity="0.7"/>
  <!-- Front legs -->
  <path d="M30 66 L27 85 L33 85 L34 66 Z" fill="#6d28d9" rx="3"/>
  <path d="M46 68 L43 87 L49 87 L50 68 Z" fill="#6d28d9"/>
  <!-- Back legs -->
  <path d="M70 68 L67 87 L73 87 L74 68 Z" fill="#6d28d9"/>
  <path d="M86 66 L83 85 L89 85 L90 66 Z" fill="#6d28d9"/>
  <!-- Feet toes -->
  <path d="M24 85 L27 85 L25 91 Z" fill="#6d28d9"/>
  <path d="M27 85 L33 85 L30 92 Z" fill="#6d28d9"/>
  <path d="M33 85 L36 85 L34 91 Z" fill="#6d28d9"/>
  <path d="M40 87 L43 87 L41 93 Z" fill="#6d28d9"/>
  <path d="M43 87 L49 87 L46 94 Z" fill="#6d28d9"/>
  <path d="M49 87 L52 87 L50 93 Z" fill="#6d28d9"/>
  <path d="M64 87 L67 87 L65 93 Z" fill="#6d28d9"/>
  <path d="M67 87 L73 87 L70 94 Z" fill="#6d28d9"/>
  <path d="M73 87 L76 87 L74 93 Z" fill="#6d28d9"/>
  <path d="M80 85 L83 85 L81 91 Z" fill="#6d28d9"/>
  <path d="M83 85 L89 85 L86 92 Z" fill="#6d28d9"/>
  <path d="M89 85 L92 85 L90 91 Z" fill="#6d28d9"/>
</svg>
